<svg xmlns="http://www.w3.org/2000/svg" width="720" height="405" viewBox="0 0 720 405" font-family="system-ui, 'Segoe UI', Arial, sans-serif">
  <rect width="720" height="405" fill="#0b0f16"/>

  <!-- browser chrome -->
  <rect x="0" y="0" width="720" height="52" fill="#10161f"/>
  <line x1="0" y1="52" x2="720" y2="52" stroke="#1e2735"/>
  <circle cx="26" cy="26" r="6" fill="#2b3648"/>
  <circle cx="46" cy="26" r="6" fill="#2b3648"/>
  <circle cx="66" cy="26" r="6" fill="#2b3648"/>
  <rect x="150" y="13" width="420" height="26" rx="13" fill="#141c28"/>
  <text x="360" y="31" font-size="13" fill="#94a0b4" text-anchor="middle">https://www.stefanc.website</text>

  <!-- page content -->
  <rect x="84" y="118" width="52" height="52" rx="12" fill="#16283f" stroke="#2b3648"/>
  <text x="110" y="151" font-family="Consolas, monospace" font-size="17" font-weight="bold" fill="#5aa2f7" text-anchor="middle">SC</text>

  <text x="160" y="141" font-size="26" font-weight="700" fill="#e2e8f2">Stefan Crnobrnja</text>
  <text x="160" y="164" font-size="13" fill="#94a0b4">Software Engineering · BTH</text>

  <rect x="84" y="206" width="340" height="12" rx="6" fill="#1e2735"/>
  <rect x="84" y="230" width="290" height="12" rx="6" fill="#1e2735"/>
  <rect x="84" y="254" width="315" height="12" rx="6" fill="#1e2735"/>

  <rect x="84" y="300" width="110" height="36" rx="9" fill="#5aa2f7"/>
  <text x="139" y="323" font-size="13.5" font-weight="600" fill="#0b1526" text-anchor="middle">View CV</text>
  <rect x="206" y="300" width="110" height="36" rx="9" fill="none" stroke="#2b3648"/>
  <text x="261" y="323" font-size="13.5" font-weight="600" fill="#e2e8f2" text-anchor="middle">Contact</text>

  <!-- language pill -->
  <rect x="560" y="104" width="76" height="30" rx="8" fill="none" stroke="#2b3648"/>
  <rect x="562" y="106" width="37" height="26" rx="6" fill="#141c28"/>
  <text x="580" y="124" font-family="Consolas, monospace" font-size="12" fill="#5aa2f7" text-anchor="middle">EN</text>
  <text x="617" y="124" font-family="Consolas, monospace" font-size="12" fill="#94a0b4" text-anchor="middle">SV</text>
</svg>
